<svg width="143" height="40" viewBox="0 0 143 40" fill="none" xmlns="http://www.w3.org/2000/svg">
<rect width="143" height="40" rx="20" fill="white"/>
<path d="M32.5 12C32.5 11.4696 32.7107 10.9609 33.0858 10.5858C33.4609 10.2107 33.9696 10 34.5 10H40.5C41.0304 10 41.5391 10.2107 41.9142 10.5858C42.2893 10.9609 42.5 11.4696 42.5 12V14H46.5C46.7652 14 47.0196 14.1054 47.2071 14.2929C47.3946 14.4804 47.5 14.7348 47.5 15C47.5 15.2652 47.3946 15.5196 47.2071 15.7071C47.0196 15.8946 46.7652 16 46.5 16H45.431L44.564 28.142C44.5281 28.6466 44.3023 29.1188 43.9321 29.4636C43.5619 29.8083 43.0749 30 42.569 30H32.43C31.9241 30 31.4371 29.8083 31.0669 29.4636C30.6967 29.1188 30.4709 28.6466 30.435 28.142L29.57 16H28.5C28.2348 16 27.9804 15.8946 27.7929 15.7071C27.6054 15.5196 27.5 15.2652 27.5 15C27.5 14.7348 27.6054 14.4804 27.7929 14.2929C27.9804 14.1054 28.2348 14 28.5 14H32.5V12ZM34.5 14H40.5V12H34.5V14ZM31.574 16L32.431 28H42.57L43.427 16H31.574ZM35.5 18C35.7652 18 36.0196 18.1054 36.2071 18.2929C36.3946 18.4804 36.5 18.7348 36.5 19V25C36.5 25.2652 36.3946 25.5196 36.2071 25.7071C36.0196 25.8946 35.7652 26 35.5 26C35.2348 26 34.9804 25.8946 34.7929 25.7071C34.6054 25.5196 34.5 25.2652 34.5 25V19C34.5 18.7348 34.6054 18.4804 34.7929 18.2929C34.9804 18.1054 35.2348 18 35.5 18ZM39.5 18C39.7652 18 40.0196 18.1054 40.2071 18.2929C40.3946 18.4804 40.5 18.7348 40.5 19V25C40.5 25.2652 40.3946 25.5196 40.2071 25.7071C40.0196 25.8946 39.7652 26 39.5 26C39.2348 26 38.9804 25.8946 38.7929 25.7071C38.6054 25.5196 38.5 25.2652 38.5 25V19C38.5 18.7348 38.6054 18.4804 38.7929 18.2929C38.9804 18.1054 39.2348 18 39.5 18Z" fill="#FE0000"/>
<path d="M64.936 13.99C66.268 13.99 67.432 14.248 68.428 14.764C69.436 15.268 70.21 16 70.75 16.96C71.302 17.908 71.578 19.018 71.578 20.29C71.578 21.562 71.302 22.666 70.75 23.602C70.21 24.538 69.436 25.258 68.428 25.762C67.432 26.254 66.268 26.5 64.936 26.5H60.85V13.99H64.936ZM64.936 24.826C66.4 24.826 67.522 24.43 68.302 23.638C69.082 22.846 69.472 21.73 69.472 20.29C69.472 18.838 69.082 17.704 68.302 16.888C67.522 16.072 66.4 15.664 64.936 15.664H62.902V24.826H64.936ZM82.7017 21.298C82.7017 21.67 82.6777 22.006 82.6297 22.306H75.0517C75.1117 23.098 75.4057 23.734 75.9337 24.214C76.4617 24.694 77.1097 24.934 77.8777 24.934C78.9817 24.934 79.7617 24.472 80.2177 23.548H82.4317C82.1317 24.46 81.5857 25.21 80.7937 25.798C80.0137 26.374 79.0417 26.662 77.8777 26.662C76.9297 26.662 76.0777 26.452 75.3217 26.032C74.5777 25.6 73.9897 25 73.5577 24.232C73.1377 23.452 72.9277 22.552 72.9277 21.532C72.9277 20.512 73.1317 19.618 73.5397 18.85C73.9597 18.07 74.5417 17.47 75.2857 17.05C76.0417 16.63 76.9057 16.42 77.8777 16.42C78.8137 16.42 79.6477 16.624 80.3797 17.032C81.1117 17.44 81.6817 18.016 82.0897 18.76C82.4977 19.492 82.7017 20.338 82.7017 21.298ZM80.5597 20.65C80.5477 19.894 80.2777 19.288 79.7497 18.832C79.2217 18.376 78.5677 18.148 77.7877 18.148C77.0797 18.148 76.4737 18.376 75.9697 18.832C75.4657 19.276 75.1657 19.882 75.0697 20.65H80.5597ZM86.7731 13.18V26.5H84.7211V13.18H86.7731ZM98.5572 21.298C98.5572 21.67 98.5332 22.006 98.4852 22.306H90.9072C90.9672 23.098 91.2612 23.734 91.7892 24.214C92.3172 24.694 92.9652 24.934 93.7332 24.934C94.8372 24.934 95.6172 24.472 96.0732 23.548H98.2872C97.9872 24.46 97.4412 25.21 96.6492 25.798C95.8692 26.374 94.8972 26.662 93.7332 26.662C92.7852 26.662 91.9332 26.452 91.1772 26.032C90.4332 25.6 89.8452 25 89.4132 24.232C88.9932 23.452 88.7832 22.552 88.7832 21.532C88.7832 20.512 88.9872 19.618 89.3952 18.85C89.8152 18.07 90.3972 17.47 91.1412 17.05C91.8972 16.63 92.7612 16.42 93.7332 16.42C94.6692 16.42 95.5032 16.624 96.2352 17.032C96.9672 17.44 97.5372 18.016 97.9452 18.76C98.3532 19.492 98.5572 20.338 98.5572 21.298ZM96.4152 20.65C96.4032 19.894 96.1332 19.288 95.6052 18.832C95.0772 18.376 94.4232 18.148 93.6432 18.148C92.9352 18.148 92.3292 18.376 91.8252 18.832C91.3212 19.276 91.0212 19.882 90.9252 20.65H96.4152ZM102.971 18.256V23.746C102.971 24.118 103.055 24.388 103.223 24.556C103.403 24.712 103.703 24.79 104.123 24.79H105.383V26.5H103.763C102.839 26.5 102.131 26.284 101.639 25.852C101.147 25.42 100.901 24.718 100.901 23.746V18.256H99.7306V16.582H100.901V14.116H102.971V16.582H105.383V18.256H102.971ZM116.364 21.298C116.364 21.67 116.34 22.006 116.292 22.306H108.714C108.774 23.098 109.068 23.734 109.596 24.214C110.124 24.694 110.772 24.934 111.54 24.934C112.644 24.934 113.424 24.472 113.88 23.548H116.094C115.794 24.46 115.248 25.21 114.456 25.798C113.676 26.374 112.704 26.662 111.54 26.662C110.592 26.662 109.74 26.452 108.984 26.032C108.24 25.6 107.652 25 107.22 24.232C106.8 23.452 106.59 22.552 106.59 21.532C106.59 20.512 106.794 19.618 107.202 18.85C107.622 18.07 108.204 17.47 108.948 17.05C109.704 16.63 110.568 16.42 111.54 16.42C112.476 16.42 113.31 16.624 114.042 17.032C114.774 17.44 115.344 18.016 115.752 18.76C116.16 19.492 116.364 20.338 116.364 21.298ZM114.222 20.65C114.21 19.894 113.94 19.288 113.412 18.832C112.884 18.376 112.23 18.148 111.45 18.148C110.742 18.148 110.136 18.376 109.632 18.832C109.128 19.276 108.828 19.882 108.732 20.65H114.222Z" fill="#FE0000"/>
</svg>
