<svg width="143" height="40" viewBox="0 0 143 40" fill="none" xmlns="http://www.w3.org/2000/svg">
<rect width="143" height="40" rx="20" fill="white"/>
<path d="M44 25.0129L48.413 24.9979L58.045 15.4579C58.423 15.0799 58.631 14.5779 58.631 14.0439C58.631 13.5099 58.423 13.0079 58.045 12.6299L56.459 11.0439C55.703 10.2879 54.384 10.2919 53.634 11.0409L44 20.5829V25.0129ZM55.045 12.4579L56.634 14.0409L55.037 15.6229L53.451 14.0379L55.045 12.4579ZM46 21.4169L52.03 15.4439L53.616 17.0299L47.587 23.0009L46 23.0059V21.4169Z" fill="black"/>
<path d="M42 29H56C57.103 29 58 28.103 58 27V18.332L56 20.332V27H45.158C45.132 27 45.105 27.01 45.079 27.01C45.046 27.01 45.013 27.001 44.979 27H42V13H48.847L50.847 11H42C40.897 11 40 11.897 40 13V27C40 28.103 40.897 29 42 29Z" fill="black"/>
<path d="M81.44 21.298C81.44 21.67 81.416 22.006 81.368 22.306H73.79C73.85 23.098 74.144 23.734 74.672 24.214C75.2 24.694 75.848 24.934 76.616 24.934C77.72 24.934 78.5 24.472 78.956 23.548H81.17C80.87 24.46 80.324 25.21 79.532 25.798C78.752 26.374 77.78 26.662 76.616 26.662C75.668 26.662 74.816 26.452 74.06 26.032C73.316 25.6 72.728 25 72.296 24.232C71.876 23.452 71.666 22.552 71.666 21.532C71.666 20.512 71.87 19.618 72.278 18.85C72.698 18.07 73.28 17.47 74.024 17.05C74.78 16.63 75.644 16.42 76.616 16.42C77.552 16.42 78.386 16.624 79.118 17.032C79.85 17.44 80.42 18.016 80.828 18.76C81.236 19.492 81.44 20.338 81.44 21.298ZM79.298 20.65C79.286 19.894 79.016 19.288 78.488 18.832C77.96 18.376 77.306 18.148 76.526 18.148C75.818 18.148 75.212 18.376 74.708 18.832C74.204 19.276 73.904 19.882 73.808 20.65H79.298ZM82.7754 21.496C82.7754 20.5 82.9794 19.618 83.3874 18.85C83.8074 18.082 84.3714 17.488 85.0794 17.068C85.7994 16.636 86.5974 16.42 87.4734 16.42C88.1214 16.42 88.7574 16.564 89.3814 16.852C90.0174 17.128 90.5214 17.5 90.8934 17.968V13.18H92.9634V26.5H90.8934V25.006C90.5574 25.486 90.0894 25.882 89.4894 26.194C88.9014 26.506 88.2234 26.662 87.4554 26.662C86.5914 26.662 85.7994 26.446 85.0794 26.014C84.3714 25.57 83.8074 24.958 83.3874 24.178C82.9794 23.386 82.7754 22.492 82.7754 21.496ZM90.8934 21.532C90.8934 20.848 90.7494 20.254 90.4614 19.75C90.1854 19.246 89.8194 18.862 89.3634 18.598C88.9074 18.334 88.4154 18.202 87.8874 18.202C87.3594 18.202 86.8674 18.334 86.4114 18.598C85.9554 18.85 85.5834 19.228 85.2954 19.732C85.0194 20.224 84.8814 20.812 84.8814 21.496C84.8814 22.18 85.0194 22.78 85.2954 23.296C85.5834 23.812 85.9554 24.208 86.4114 24.484C86.8794 24.748 87.3714 24.88 87.8874 24.88C88.4154 24.88 88.9074 24.748 89.3634 24.484C89.8194 24.22 90.1854 23.836 90.4614 23.332C90.7494 22.816 90.8934 22.216 90.8934 21.532ZM96.7026 15.268C96.3306 15.268 96.0186 15.142 95.7666 14.89C95.5146 14.638 95.3886 14.326 95.3886 13.954C95.3886 13.582 95.5146 13.27 95.7666 13.018C96.0186 12.766 96.3306 12.64 96.7026 12.64C97.0626 12.64 97.3686 12.766 97.6206 13.018C97.8726 13.27 97.9986 13.582 97.9986 13.954C97.9986 14.326 97.8726 14.638 97.6206 14.89C97.3686 15.142 97.0626 15.268 96.7026 15.268ZM97.7106 16.582V26.5H95.6586V16.582H97.7106ZM102.799 18.256V23.746C102.799 24.118 102.883 24.388 103.051 24.556C103.231 24.712 103.531 24.79 103.951 24.79H105.211V26.5H103.591C102.667 26.5 101.959 26.284 101.467 25.852C100.975 25.42 100.729 24.718 100.729 23.746V18.256H99.5587V16.582H100.729V14.116H102.799V16.582H105.211V18.256H102.799Z" fill="#2E2E2E"/>
</svg>
