<svg width="26" height="29" viewBox="0 0 26 29" fill="none" xmlns="http://www.w3.org/2000/svg">
<path d="M0.833374 24.8333C0.833374 27.6966 7.31337 28.9999 13.3334 28.9999C19.3534 28.9999 25.8334 27.6966 25.8334 24.8333C25.8334 22.5599 21.8984 21.5333 19.0634 21.0899L21 19.1666C22.5152 17.6516 23.5471 15.7212 23.9651 13.6198C24.3832 11.5183 24.1687 9.34 23.3488 7.36041C22.5289 5.38083 21.1404 3.68884 19.3588 2.49842C17.5773 1.30799 15.4827 0.672607 13.34 0.672607C11.1974 0.672607 9.10282 1.30799 7.32127 2.49842C5.53972 3.68884 4.15118 5.38083 3.33126 7.36041C2.51134 9.34 2.29685 11.5183 2.71493 13.6198C3.13301 15.7212 4.16488 17.6516 5.68004 19.1666L7.61004 21.0966C4.76837 21.5333 0.833374 22.5599 0.833374 24.8333ZM15 7.33325C15 7.17849 15.0431 7.02679 15.1245 6.89514C15.2059 6.7635 15.3223 6.65711 15.4607 6.5879C15.5991 6.51869 15.7541 6.48939 15.9082 6.50329C16.0623 6.51719 16.2096 6.57373 16.3334 6.66659C17.3653 7.44081 18.2222 8.42414 18.848 9.55227C19.4738 10.6804 19.8545 11.9279 19.965 13.2133C20.0016 13.6081 19.8952 14.003 19.6652 14.326C19.4352 14.649 19.0968 14.8787 18.7117 14.9733L16.6667 15.4849V17.3333C16.6667 17.5543 16.5789 17.7662 16.4226 17.9225C16.2663 18.0788 16.0544 18.1666 15.8334 18.1666C15.6124 18.1666 15.4004 18.0788 15.2441 17.9225C15.0878 17.7662 15 17.5543 15 17.3333V7.33325ZM7.50004 8.99992V7.33325C7.50004 7.11224 7.58784 6.90028 7.74412 6.744C7.9004 6.58772 8.11236 6.49992 8.33337 6.49992C8.55439 6.49992 8.76635 6.58772 8.92263 6.744C9.07891 6.90028 9.16671 7.11224 9.16671 7.33325V8.99992C9.17002 9.28733 9.24874 9.56883 9.39498 9.81627C9.54122 10.0637 9.74986 10.2684 10 10.4099V7.33325C10 7.11224 10.0878 6.90028 10.2441 6.744C10.4004 6.58772 10.6124 6.49992 10.8334 6.49992C11.0544 6.49992 11.2663 6.58772 11.4226 6.744C11.5789 6.90028 11.6667 7.11224 11.6667 7.33325V10.4099C11.9169 10.2684 12.1255 10.0637 12.2718 9.81627C12.418 9.56883 12.4967 9.28733 12.5 8.99992V7.33325C12.5 7.11224 12.5878 6.90028 12.7441 6.744C12.9004 6.58772 13.1124 6.49992 13.3334 6.49992C13.5544 6.49992 13.7663 6.58772 13.9226 6.744C14.0789 6.90028 14.1667 7.11224 14.1667 7.33325V8.99992C14.1639 9.73677 13.9171 10.4519 13.4648 11.0336C13.0125 11.6153 12.3802 12.0307 11.6667 12.2149V17.3333C11.6667 17.5543 11.5789 17.7662 11.4226 17.9225C11.2663 18.0788 11.0544 18.1666 10.8334 18.1666C10.6124 18.1666 10.4004 18.0788 10.2441 17.9225C10.0878 17.7662 10 17.5543 10 17.3333V12.2149C9.28659 12.0307 8.65428 11.6153 8.20196 11.0336C7.74964 10.4519 7.5028 9.73677 7.50004 8.99992ZM9.09004 22.5766L11.565 25.0533C11.7972 25.2856 12.0729 25.4699 12.3763 25.5956C12.6797 25.7213 13.0049 25.7861 13.3334 25.7861C13.6618 25.7861 13.987 25.7213 14.2905 25.5956C14.5939 25.4699 14.8695 25.2856 15.1017 25.0533L17.5767 22.5766C22.1567 23.1066 24.1667 24.3133 24.1667 24.8333C24.1667 25.5799 20.4817 27.3333 13.3334 27.3333C6.18504 27.3333 2.50004 25.5799 2.50004 24.8333C2.50004 24.3133 4.51004 23.1066 9.09004 22.5766Z" fill="#A098AE"/>
</svg>
